<svg width="32" height="32" viewBox="0 0 32 32" fill="none" xmlns="http://www.w3.org/2000/svg">
<circle cx="15.9006" cy="15.9006" r="15.9006" fill="black"/>
<path fill-rule="evenodd" clip-rule="evenodd" d="M16.0129 0C6.86828 0 0 6.92262 0 16.1438C0 23.8801 4.87923 28.9855 11.0789 31.0691C11.854 31.2258 12.1379 30.7306 12.1379 30.3141C12.1379 29.9493 12.1124 28.6991 12.1124 27.3965C7.7721 28.3344 6.86828 25.521 6.86828 25.521C6.17077 23.6976 5.13728 23.2289 5.13728 23.2289C3.71672 22.2651 5.24076 22.2651 5.24076 22.2651C6.81654 22.3693 7.6434 23.8801 7.6434 23.8801C9.0381 26.2763 11.2855 25.5993 12.1897 25.1824C12.3187 24.1665 12.7323 23.4632 13.1714 23.0726C9.70974 22.7079 6.06762 21.3534 6.06762 15.3101C6.06762 13.5909 6.6872 12.1844 7.66895 11.0905C7.51405 10.6998 6.97144 9.08454 7.82416 6.92261C7.82416 6.92261 9.14157 6.50577 12.1121 8.53758C13.3838 8.19319 14.6954 8.018 16.0129 8.01652C17.3303 8.01652 18.6732 8.19905 19.9134 8.53758C22.8842 6.50577 24.2016 6.92261 24.2016 6.92261C25.0543 9.08454 24.5114 10.6998 24.3565 11.0905C25.3641 12.1844 25.9581 13.5909 25.9581 15.3101C25.9581 21.3534 22.316 22.6817 18.8285 23.0726C19.3969 23.5675 19.8875 24.505 19.8875 25.9899C19.8875 28.0997 19.8619 29.793 19.8619 30.3138C19.8619 30.7306 20.1462 31.2258 20.921 31.0695C27.1206 28.9852 31.9999 23.0985 31.9999 16.1438C32.0255 7.44336 25.1574 0 16.0129 0Z" fill="white"/>
</svg>
