<svg width="32" height="32" viewBox="0 0 32 32" fill="none" xmlns="http://www.w3.org/2000/svg">
<circle cx="16" cy="16" r="16" fill="white"/>
<path d="M10.7067 24.8889H6.33681V11.2471H10.7067V24.8889ZM8.49477 9.57245C7.11457 9.57245 6.22217 8.62389 6.22217 7.45073C6.22217 6.25358 7.14155 5.33337 8.55097 5.33337C9.96039 5.33337 10.8236 6.25358 10.8505 7.45073C10.8505 8.62389 9.96039 9.57245 8.49477 9.57245ZM26.6666 24.8889H22.2967V17.3288C22.2967 15.5691 21.6628 14.3741 20.0826 14.3741C18.8755 14.3741 18.1584 15.1831 17.8414 15.9616C17.7246 16.2385 17.6953 16.631 17.6953 17.0214V24.8867H13.3232V15.5974C13.3232 13.8944 13.267 12.4705 13.2086 11.245H17.0052L17.2053 13.1399H17.293C17.8684 12.2502 19.2778 10.9375 21.6359 10.9375C24.5109 10.9375 26.6666 12.8063 26.6666 16.8229V24.8889Z" fill="black"/>
</svg>
