<svg width="32" height="32" viewBox="0 0 32 32" fill="none" xmlns="http://www.w3.org/2000/svg">
<circle cx="16" cy="16" r="16" fill="white"/>
<path d="M24.8888 17.2861V8.30815C24.8888 7.98394 24.7704 7.70338 24.5335 7.46646C24.2965 7.22954 24.016 7.11108 23.6918 7.11108H14.7138C14.1901 7.11108 13.8223 7.35424 13.6103 7.84054C13.3983 8.35179 13.4856 8.78822 13.8721 9.14983L16.5655 11.8432L6.57755 21.8312C6.34063 22.0681 6.22217 22.3487 6.22217 22.6729C6.22217 22.9971 6.34063 23.2776 6.57755 23.5146L8.48536 25.4224C8.72228 25.6593 9.00284 25.7778 9.32704 25.7778C9.65125 25.7778 9.93181 25.6593 10.1687 25.4224L20.1567 15.4344L22.8501 18.1278C23.0745 18.3647 23.3551 18.4832 23.6918 18.4832C23.8414 18.4832 23.9973 18.452 24.1594 18.3896C24.6457 18.1777 24.8888 17.8098 24.8888 17.2861Z" fill="black"/>
</svg>
