<svg width="32" height="32" viewBox="0 0 32 32" fill="none" xmlns="http://www.w3.org/2000/svg">
<circle cx="16" cy="16" r="16" fill="white"/>
<path d="M6.97211 7.11108H25.0277C26.423 7.11108 27.5554 8.27257 27.5554 9.70368V22.2963C27.5554 22.9839 27.2891 23.6433 26.8151 24.1295C26.341 24.6157 25.6981 24.8889 25.0277 24.8889H6.97211C6.30171 24.8889 5.65876 24.6157 5.1847 24.1295C4.71065 23.6433 4.44434 22.9839 4.44434 22.2963V9.70368C4.44434 8.27257 5.57678 7.11108 6.97211 7.11108ZM6.611 22.2978C6.611 22.5022 6.77278 22.6681 6.97211 22.6681H25.0277C25.1234 22.6681 25.2153 22.6291 25.283 22.5596C25.3507 22.4902 25.3888 22.396 25.3888 22.2978V12.754L16.5488 18.0696C16.3824 18.1699 16.1929 18.2228 15.9999 18.2228C15.8069 18.2228 15.6174 18.1699 15.451 18.0696L6.611 12.754V22.2978ZM25.3888 10.1778V9.70368C25.3888 9.60545 25.3507 9.51124 25.283 9.44179C25.2153 9.37233 25.1234 9.33331 25.0277 9.33331H6.97211C6.87634 9.33331 6.78449 9.37233 6.71677 9.44179C6.64905 9.51124 6.611 9.60545 6.611 9.70368V10.1778L15.9999 15.8222L25.3888 10.1778Z" fill="black"/>
</svg>
